<?xml version="1.0" encoding="UTF-8" standalone="no"?>
<!DOCTYPE svg PUBLIC "-//W3C//DTD SVG 1.1//EN" "http://www.w3.org/Graphics/SVG/1.1/DTD/svg11.dtd">
<svg width="100%" height="100%" viewBox="0 0 1080 1080" version="1.1" xmlns="http://www.w3.org/2000/svg" xmlns:xlink="http://www.w3.org/1999/xlink" xml:space="preserve" xmlns:serif="http://www.serif.com/" style="fill-rule:evenodd;clip-rule:evenodd;stroke-linecap:round;stroke-linejoin:round;stroke-miterlimit:1.5;">
    <g transform="matrix(-1.15445,0,0,1.15445,1245.43,-178.554)">
        <path d="M990.189,622.421C990.189,413.17 820.304,243.284 611.053,243.284C401.801,243.284 231.916,413.17 231.916,622.421C231.916,831.672 401.801,1001.56 611.053,1001.56L990.189,1001.56L990.189,622.421Z" style="fill:rgb(0,64,255);"/>
    </g>
    <g transform="matrix(-1,0,0,1,1151.05,-82.4211)">
        <path d="M990.189,622.421C990.189,413.17 820.304,243.284 611.053,243.284C401.801,243.284 231.916,413.17 231.916,622.421C231.916,831.672 401.801,1001.56 611.053,1001.56L990.189,1001.56L990.189,622.421Z" style="fill:none;stroke:black;stroke-width:6px;"/>
    </g>
    <g transform="matrix(3.93228e-17,0.64219,-1.09954,6.73272e-17,1196.64,183.217)">
        <rect x="540" y="243.284" width="31.143" height="18.189" style="fill:white;stroke:black;stroke-width:6.66px;"/>
    </g>
    <g transform="matrix(3.93228e-17,0.64219,-1.09954,6.73272e-17,817.5,562.354)">
        <rect x="540" y="243.284" width="31.143" height="18.189" style="fill:white;stroke:black;stroke-width:6.66px;"/>
    </g>
    <g transform="matrix(3.93228e-17,0.64219,-1.09954,6.73272e-17,438.363,562.354)">
        <rect x="540" y="243.284" width="31.143" height="18.189" style="fill:white;stroke:black;stroke-width:6.66px;"/>
    </g>
    <g transform="matrix(3.93228e-17,0.64219,-1.09954,6.73272e-17,817.5,-195.92)">
        <rect x="540" y="243.284" width="31.143" height="18.189" style="fill:white;stroke:black;stroke-width:6.66px;"/>
    </g>
    <g transform="matrix(3.93228e-17,0.64219,-1.09954,6.73272e-17,438.363,183.217)">
        <rect x="540" y="243.284" width="31.143" height="18.189" style="fill:white;stroke:black;stroke-width:6.66px;"/>
    </g>
    <g transform="matrix(696.664,0,0,695.176,260.739,793.312)">
        <path d="M0.689,-0L0.518,-0.25C0.607,-0.283 0.668,-0.354 0.668,-0.467L0.668,-0.469C0.668,-0.613 0.569,-0.7 0.404,-0.7L0.084,-0.7L0.084,-0L0.238,-0L0.238,-0.224L0.359,-0.224L0.509,-0L0.689,-0ZM0.512,-0.459C0.512,-0.4 0.469,-0.36 0.394,-0.36L0.238,-0.36L0.238,-0.561L0.391,-0.561C0.466,-0.561 0.512,-0.527 0.512,-0.461L0.512,-0.459Z" style="fill:white;fill-rule:nonzero;"/>
    </g>
</svg>
